<?xml version="1.0" encoding="iso-8859-1"?>
<!-- Uploaded to: SVG Repo, www.svgrepo.com, Generator: SVG Repo Mixer Tools -->
<svg height="800px" width="800px" version="1.1" id="Layer_1" xmlns="http://www.w3.org/2000/svg" xmlns:xlink="http://www.w3.org/1999/xlink" 
	 viewBox="0 0 512 512" xml:space="preserve">
<path style="fill:#F60A53;" d="M264.005,504.171c78.958,0,140.69-73.747,120.077-156.117
	c-13.677-54.651-64.239-92.053-120.576-92.053l0,0c-63.836,0-119.953-46.752-126.836-110.216
	C128.567,71.04,186.902,7.83,260.003,7.83h-4.002C118.939,7.83,7.829,118.939,7.829,256l0,0c0,137.061,111.11,248.17,248.17,248.17
	h8.006V504.171z"/>
<path style="fill:#A90437;" d="M78.053,256L78.053,256c0-65.237,25.208-124.697,66.367-168.992
	c17.978-46.365,62.865-79.454,115.583-79.454h-4.003C118.94,7.554,7.555,118.802,7.555,255.861v0.207
	c0,137.061,111.385,248.377,248.445,248.377h8.007c8.797,0,17.363-1.101,25.643-2.841C169.933,483.918,78.053,380.633,78.053,256z"
	/>
<g>
	<path style="fill:#FFFFFF;" d="M256.81,350.93l11.85-21.331c6.715-12.087,20.447-19.393,33.944-16.393
		c5.74,1.276,11.198,4.147,15.665,8.613c4.467,4.467,7.337,9.923,8.613,15.665c3,13.497-4.306,27.229-16.393,33.944l-21.331,11.85"
		/>
	<path style="fill:#FFFFFF;" d="M244.679,395.409l-43.167-23.981c-12.086-6.715-19.393-20.447-16.393-33.944
		c1.276-5.74,4.147-11.198,8.613-15.665c4.467-4.467,9.923-7.337,15.665-8.613c13.497-3,27.229,4.306,33.944,16.393l23.981,43.167"
		/>
	<path style="fill:#FFFFFF;" d="M255.189,417.247l-11.85,21.331c-6.715,12.086-20.447,19.393-33.944,16.393
		c-5.74-1.276-11.198-4.147-15.665-8.613c-4.466-4.466-7.338-9.923-8.613-15.665c-3-13.497,4.306-27.229,16.393-33.944l21.331-11.85
		"/>
	<path style="fill:#FFFFFF;" d="M244.679,395.409l23.981,43.167c6.715,12.086,20.447,19.393,33.944,16.393
		c5.74-1.276,11.198-4.147,15.665-8.613c4.467-4.466,7.337-9.923,8.613-15.665c3-13.497-4.306-27.229-16.393-33.944l-43.167-23.981"
		/>
</g>
<path style="fill:#FBB516;" d="M264.005,504.171c78.958,0,140.69-73.747,120.077-156.117
	c-13.677-54.651-64.239-92.053-120.576-92.053l0,0c-63.836,0-119.953-46.752-126.836-110.216
	C128.567,71.04,186.902,7.83,260.003,7.83h4.002c132.64,0,240.166,107.525,240.166,240.166v8.006v8.006
	C504.171,396.645,396.645,504.171,264.005,504.171L264.005,504.171z"/>
<path style="fill:#FFFFFF;" d="M247.994,111.901l20.665-37.983c6.715-12.086,20.447-19.393,33.944-16.393
	c5.74,1.276,11.198,4.146,15.665,8.613c4.467,4.467,7.337,9.923,8.613,15.665c3,13.498-4.306,27.229-16.393,33.944l-30.472,20.171"
	/>
<circle style="fill:#FE702D;" cx="256.004" cy="127.908" r="16.011"/>
<g>
	<path style="fill:#FFFFFF;" d="M244.679,139.728l-43.167-23.981c-12.086-6.715-19.393-20.447-16.393-33.944
		c1.276-5.74,4.147-11.198,8.613-15.665c4.467-4.466,9.923-7.338,15.665-8.613c13.497-3,27.229,4.306,33.944,16.393l23.981,43.167"
		/>
	<path style="fill:#FFFFFF;" d="M264.005,143.924l-20.666,38.973c-6.715,12.087-20.447,19.393-33.944,16.393
		c-5.74-1.276-11.198-4.146-15.665-8.613c-4.466-4.467-7.338-9.923-8.613-15.665c-3-13.497,4.306-27.229,16.393-33.944
		l38.478-21.161"/>
	<path style="fill:#FFFFFF;" d="M244.679,139.728l23.981,43.167c6.715,12.087,20.447,19.393,33.944,16.393
		c5.74-1.276,11.198-4.146,15.665-8.613c4.467-4.467,7.337-9.923,8.613-15.665c3-13.497-4.306-27.229-16.393-33.944l-43.167-23.981"
		/>
</g>
<g>
	<path style="fill:#FE702D;" d="M426.028,356.059c-13.481-53.868-62.814-90.903-118.176-91.953
		c36.899,13.786,66.303,44.28,76.229,83.949c20.614,82.371-41.12,156.118-120.077,156.118c55.557,0,106.666-18.915,147.354-50.588
		C428.328,426.33,435.027,392.018,426.028,356.059z"/>
	<path style="fill:#FE702D;" d="M178.617,153.302c-8.105-74.744,50.232-138.441,123.333-138.441h4.003
		c8.035,0,15.974,0.761,23.807,1.532c-20.905-5.941-42.944-8.84-65.754-8.84h-4.002c-73.101,0-131.437,63.348-123.331,138.092
		c6.757,62.322,61.016,108.243,123.417,109.886C216.85,239.498,183.794,201.052,178.617,153.302z"/>
</g>
<circle style="fill:#F60A53;" cx="256.004" cy="127.908" r="16.011"/>
<path d="M512,256c0-68.38-26.629-132.667-74.981-181.019C388.667,26.629,324.38,0.001,255.999,0.001S123.333,26.629,74.981,74.981
	S0,187.62,0,256s26.629,132.667,74.981,181.019S187.619,512,255.999,512c2.791,0,22.107-0.553,28.773-1.608
	c57.495-6.391,110.743-31.87,152.246-73.373C485.371,388.667,512,324.38,512,256z M86.053,425.947
	C40.658,380.553,15.658,320.197,15.658,256s25-124.552,70.395-169.946c26.482-26.482,58.062-46.008,92.52-57.695
	c-30.718,24.197-50.399,61.741-50.399,103.817c0,72.881,59.091,132.175,131.829,132.175h4.002
	c64.103,0,116.429,52.036,116.429,115.995c0,57.648-42.574,105.6-97.601,114.505c-8.849,0.977-17.801,1.49-26.834,1.49
	C191.802,496.342,131.447,471.342,86.053,425.947z M355.852,474.739c24.733-23.939,40.241-57.406,40.241-94.393
	c0-72.594-59.349-131.653-132.088-131.653h-4.002c-64.104,0-116.17-52.27-116.17-116.517c0-64.176,51.621-116.386,116.343-116.386
	V15.71c62.634,1.061,121.363,25.935,165.772,70.344c45.394,45.395,70.395,105.75,70.395,169.947s-25,124.552-70.395,169.947
	C405.325,446.57,381.608,462.967,355.852,474.739z"/>
<circle style="fill:#FBB516;" cx="256.004" cy="384.09" r="16.011"/>
<path d="M314.29,133.728l-10.469-5.816l10.469-5.816c15.554-8.641,23.873-26.112,20.234-42.487
	c-1.642-7.388-5.349-14.131-10.72-19.502c-5.372-5.372-12.114-9.078-19.502-10.72c-16.377-3.641-33.846,4.679-42.488,20.234
	l-5.816,10.468l-5.816-10.469c-8.64-15.553-26.112-23.878-42.486-20.233c-7.387,1.642-14.13,5.349-19.502,10.72
	c-5.371,5.371-9.078,12.114-10.72,19.502c-3.64,16.374,4.68,33.845,20.234,42.487l10.469,5.816l-10.469,5.817
	c-15.554,8.64-23.874,26.112-20.234,42.486c1.642,7.388,5.349,14.132,10.72,19.502c5.371,5.371,12.113,9.078,19.501,10.72
	c2.572,0.572,5.169,0.849,7.758,0.849c13.887,0,27.446-7.972,34.729-21.082l5.817-10.469l5.816,10.469
	c7.285,13.111,20.843,21.081,34.73,21.081c2.588,0,5.186-0.277,7.758-0.849c7.388-1.643,14.131-5.349,19.502-10.72
	s9.077-12.113,10.72-19.502C338.164,159.84,329.844,142.368,314.29,133.728z M275.503,77.226c5.3-9.538,15.743-14.702,25.403-12.553
	c4.475,0.995,8.565,3.244,11.826,6.507c3.262,3.262,5.512,7.352,6.507,11.827c2.147,9.657-3.016,20.102-12.553,25.401L279.43,123.55
	c-0.385-2.096-1.061-4.111-1.983-6.014l12.392-12.391l-11.072-11.072l-12.393,12.392c-1.903-0.923-3.918-1.597-6.014-1.983
	L275.503,77.226z M250.213,133.697c-1.545-1.545-2.396-3.599-2.396-5.785s0.852-4.24,2.397-5.785c1.546-1.545,3.6-2.396,5.785-2.396
	c2.185,0,4.24,0.851,5.785,2.396h0.001c1.545,1.545,2.396,3.599,2.396,5.785c0,2.185-0.85,4.24-2.397,5.785
	c-1.546,1.545-3.599,2.397-5.785,2.397C253.815,136.095,251.759,135.243,250.213,133.697z M205.313,108.409
	c-9.538-5.299-14.699-15.744-12.553-25.402c0.995-4.476,3.244-8.565,6.507-11.827c3.262-3.262,7.351-5.512,11.827-6.507
	c9.654-2.148,20.102,3.015,25.402,12.552l10.547,18.986l-4.168,7.503l-9.642-9.642l-11.072,11.072l9.642,9.642l-7.503,4.168
	L205.313,108.409z M236.495,178.599c-5.298,9.537-15.742,14.701-25.401,12.552c-4.476-0.995-8.566-3.244-11.827-6.507
	c-3.262-3.261-5.512-7.351-6.507-11.826c-2.147-9.657,3.015-20.102,12.552-25.401l27.256-15.142
	c0.386,2.096,1.061,4.111,1.983,6.014l-12.392,12.392l11.072,11.073l12.392-12.392c1.903,0.923,3.917,1.597,6.013,1.983
	L236.495,178.599z M319.238,172.818c-0.995,4.476-3.244,8.565-6.507,11.827c-3.261,3.261-7.351,5.512-11.827,6.507
	c-9.66,2.147-20.103-3.016-25.401-12.552l-10.547-18.987l4.168-7.503l9.642,9.642l11.072-11.073l-9.642-9.642l7.503-4.168
	l18.986,10.547C316.224,152.714,321.386,163.16,319.238,172.818z"/>
<path d="M314.29,389.904l-10.469-5.816l10.469-5.816c15.554-8.64,23.874-26.112,20.234-42.487
	c-1.642-7.388-5.349-14.131-10.72-19.502c-5.371-5.371-12.114-9.077-19.502-10.72c-16.377-3.641-33.846,4.68-42.488,20.234
	l-5.816,10.469l-5.817-10.469c-8.641-15.553-26.111-23.874-42.487-20.233c-7.388,1.642-14.13,5.35-19.501,10.719
	c-5.372,5.371-9.078,12.114-10.72,19.502c-3.64,16.374,4.68,33.846,20.234,42.487l10.469,5.817l-10.469,5.816
	c-15.553,8.641-23.874,26.113-20.233,42.486c1.642,7.388,5.349,14.132,10.72,19.502c5.371,5.372,12.114,9.078,19.501,10.72
	c2.572,0.572,5.169,0.849,7.758,0.849c13.886,0,27.446-7.972,34.729-21.082l5.817-10.469l5.817,10.469
	c7.285,13.111,20.843,21.081,34.73,21.081c2.587,0,5.186-0.277,7.757-0.849c7.388-1.642,14.131-5.349,19.503-10.72
	c5.371-5.371,9.077-12.113,10.72-19.502C338.163,416.016,329.844,398.545,314.29,389.904z M275.503,333.402
	c5.3-9.537,15.744-14.701,25.402-12.553c4.476,0.995,8.566,3.245,11.827,6.507c3.262,3.262,5.512,7.351,6.507,11.827
	c2.147,9.657-3.016,20.103-12.553,25.401l-18.986,10.547l-7.503-4.168l9.642-9.642l-11.072-11.073l-9.642,9.642l-4.168-7.503
	L275.503,333.402z M261.785,378.303c1.545,1.545,2.396,3.599,2.396,5.785c0,2.186-0.85,4.24-2.396,5.785l-0.001,0.001
	c-1.545,1.545-3.599,2.396-5.785,2.396c-2.185,0-4.239-0.851-5.785-2.397c-1.545-1.545-2.397-3.599-2.397-5.785
	c0-2.185,0.852-4.239,2.397-5.785c1.545-1.545,3.599-2.397,5.784-2.397C258.184,375.906,260.239,376.758,261.785,378.303z
	 M192.761,339.182c0.995-4.476,3.244-8.565,6.507-11.827c3.261-3.261,7.351-5.512,11.827-6.507
	c9.657-2.148,20.102,3.015,25.402,12.552l15.142,27.256c-2.096,0.386-4.11,1.061-6.013,1.983l-12.392-12.392l-11.072,11.073
	l12.39,12.393c-0.923,1.903-1.597,3.917-1.983,6.014l-27.255-15.142C195.775,359.286,190.614,348.841,192.761,339.182z
	 M236.495,434.775c-5.298,9.538-15.744,14.699-25.402,12.553c-4.475-0.995-8.564-3.244-11.826-6.507
	c-3.262-3.261-5.512-7.351-6.507-11.827c-2.147-9.657,3.015-20.102,12.552-25.402l18.986-10.547l7.503,4.168l-9.642,9.642
	l11.072,11.071l9.642-9.642l4.168,7.503L236.495,434.775z M319.238,428.994c-0.995,4.476-3.244,8.566-6.507,11.827
	c-3.261,3.262-7.351,5.512-11.827,6.507c-9.66,2.147-20.103-3.016-25.401-12.552l-15.143-27.256
	c2.096-0.386,4.111-1.061,6.014-1.983l12.393,12.392l11.071-11.072l-12.392-12.392c0.923-1.903,1.597-3.918,1.983-6.014
	l27.256,15.142C316.224,408.891,321.386,419.336,319.238,428.994z"/>
<g>
	<path style="fill:#FFFFFF;" d="M222.682,295.744c-8.396-1.408-16.719-3.542-24.738-6.339l5.157-14.785
		c7.187,2.507,14.647,4.419,22.172,5.681L222.682,295.744z"/>
	<path style="fill:#FFFFFF;" d="M178.375,280.99c-50.772-26.218-82.312-77.975-82.312-135.074h15.658
		c0,51.216,28.294,97.643,73.839,121.161L178.375,280.99z"/>
	<path style="fill:#FFFFFF;" d="M324.91,245.386c-7.191-2.508-14.651-4.42-22.171-5.681l2.589-15.442
		c8.392,1.407,16.715,3.54,24.738,6.339L324.91,245.386z"/>
	<path style="fill:#FFFFFF;" d="M431.947,374.091h-15.658c0-51.216-28.294-97.642-73.839-121.161l7.185-13.913
		C400.407,265.235,431.947,316.992,431.947,374.091z"/>
</g>
</svg>